<svg width="39" height="45" viewBox="0 0 39 45" fill="none" xmlns="http://www.w3.org/2000/svg">
<path id="Vector" d="M20.7708 0.477051C14.1724 0.477051 9.27358 2.26604 6.17435 3.65748L5.67447 3.85626L8.47378 10.3165L8.97366 10.1177C9.17361 10.0183 14.0724 7.7324 20.2709 7.7324C26.3694 7.7324 30.0685 10.5153 30.0685 15.0871V19.1621C27.0692 16.9755 22.9702 15.6835 18.5713 15.6835C11.473 15.6835 0.975632 19.3608 0.975632 29.4985C0.975632 36.555 5.77445 44.9037 19.4711 44.9037C29.8685 44.9037 35.5671 41.3257 38.0665 39.2385L38.2664 39.1391V16.8761C38.1665 5.34708 32.9678 0.477051 20.7708 0.477051ZM30.0685 26.815V34.9648C27.4691 36.6544 23.97 37.5489 19.971 37.5489C12.8727 37.5489 9.67349 33.6728 9.67349 29.9954C9.67349 26.4174 12.7727 22.9388 19.571 22.9388C24.8697 22.9388 28.5688 25.5229 30.0685 26.815Z" fill="white"/>
</svg>
