<svg width="42" height="66" viewBox="0 0 42 66" fill="none" xmlns="http://www.w3.org/2000/svg">
<path id="Vector" d="M24.048 0.477051C17.8496 0.477051 12.151 2.46482 7.95199 6.14219C3.35312 10.2171 0.853729 15.8822 0.853729 22.6407C0.853729 30.8899 4.25289 36.0581 7.15218 38.9404C10.8513 42.6177 15.95 44.8043 20.9488 44.8043C25.3477 44.8043 30.1465 42.8165 33.3457 39.7355V46.1957C33.3457 54.5443 29.4467 58.818 21.7486 58.818C15.85 58.818 10.4514 56.5321 7.65206 54.6437L7.25216 54.3456L3.45309 60.7064L3.85299 61.0046C6.6523 62.8929 12.7508 65.974 21.7486 65.974C25.5477 65.974 30.9463 65.1789 35.2453 61.6009C39.5442 58.0229 41.6437 52.5566 41.6437 45.3012V5.44647L41.4437 5.34708C36.345 2.06727 30.6464 0.477051 24.048 0.477051ZM33.3457 10.0183V31.3868C31.1463 34.9648 26.7474 37.4495 22.5484 37.4495C13.1507 37.4495 9.65156 28.604 9.65156 22.6407C9.65156 11.6085 17.4496 7.7324 24.148 7.7324C28.6469 7.7324 31.9461 9.32262 33.3457 10.0183Z" fill="white"/>
</svg>
