<svg width="167" height="49" viewBox="0 0 167 49" fill="none" xmlns="http://www.w3.org/2000/svg">
<g id="Group">
<path id="Vector" d="M45.657 19.4128C42.7316 19.4128 40.5597 20.211 39.1856 20.8318L38.964 20.9205L40.2051 23.8028L40.4267 23.7141C40.5154 23.6697 42.6873 22.6498 45.4353 22.6498C48.1391 22.6498 49.7791 23.8914 49.7791 25.9312V27.7492C48.4494 26.7737 46.6321 26.1972 44.6818 26.1972C41.5348 26.1972 36.8808 27.8379 36.8808 32.3609C36.8808 35.5092 39.0084 39.2339 45.0807 39.2339C49.6904 39.2339 52.2169 37.6376 53.325 36.7064L53.4137 36.6621V26.7294C53.3693 21.5856 51.0645 19.4128 45.657 19.4128ZM49.7791 31.1636V34.7997C48.6267 35.5535 47.0753 35.9526 45.3024 35.9526C42.1554 35.9526 40.737 34.2232 40.737 32.5826C40.737 30.9862 42.111 29.4342 45.1251 29.4342C47.4742 29.4342 49.1142 30.5872 49.7791 31.1636Z" fill="#36517F"/>
<path id="Vector_2" d="M66.445 19.4128C63.7412 19.4128 61.7466 20.6544 60.6385 21.5856V19.9006H56.9153V38.6575H60.6385V25C61.392 24.1575 63.2536 22.8272 65.3369 22.8272C68.3066 22.8272 69.4147 24.2462 69.4147 28.0153V38.6575H73.1379V26.3746C73.1379 21.763 70.8774 19.4128 66.445 19.4128Z" fill="#36517F"/>
<path id="Vector_3" d="M28.4149 25.5321L28.3706 25.5765L28.4149 25.5321C26.3317 24.5122 24.5587 23.6254 24.5587 22.0291C24.5587 20.8318 25.4895 19.6346 27.5728 19.6346C29.6117 19.6346 31.5176 21.1865 32.0052 21.7187L32.3154 22.0291L34.177 18.7477L33.9997 18.5703C32.803 17.3731 30.3209 15.9985 27.1295 15.9985C23.0517 15.9985 19.949 18.7034 19.949 22.2508C19.949 25.6208 23.0517 27.2615 25.7555 28.6804C27.9274 29.8333 29.789 30.8089 29.789 32.4052C29.789 35.3762 27.0409 35.5979 26.1987 35.5979H19.1512H18.4863V39.2339H26.376C31.163 39.2339 34.3987 36.4404 34.3987 32.3165C34.3543 28.4587 31.2073 26.9067 28.4149 25.5321Z" fill="#36517F"/>
<path id="Vector_4" d="M86.5681 19.4128C83.82 19.4128 81.2935 20.2997 79.4319 21.9404C77.393 23.7584 76.2849 26.2859 76.2849 29.3012C76.2849 32.9816 77.7919 35.2875 79.0773 36.5734C80.7173 38.2141 82.9778 39.1896 85.194 39.1896C87.1443 39.1896 89.2719 38.3028 90.6902 36.9281V39.8104C90.6902 43.5352 88.9616 45.4419 85.5486 45.4419C82.9335 45.4419 80.54 44.422 79.2989 43.5795L79.1217 43.4465L77.4373 46.2844L77.6146 46.4174C78.8557 47.2599 81.5595 48.6346 85.5486 48.6346C87.233 48.6346 89.6265 48.2798 91.5324 46.6835C93.4383 45.0872 94.3691 42.6483 94.3691 39.4113V21.63L94.2805 21.5856C92.02 20.1223 89.4935 19.4128 86.5681 19.4128ZM90.6902 23.6697V33.2034C89.7151 34.7997 87.7648 35.9083 85.9032 35.9083C81.7368 35.9083 80.1854 31.9618 80.1854 29.3012C80.1854 24.3792 83.6427 22.6498 86.6124 22.6498C88.607 22.6498 90.0697 23.3593 90.6902 23.6697Z" fill="#36517F"/>
<path id="Vector_5" d="M107.622 19.4128C101.949 19.4128 97.5161 23.7584 97.5161 29.3012C97.5161 34.844 101.949 39.1896 107.578 39.1896C113.207 39.1896 117.595 34.844 117.595 29.3012C117.595 23.7584 113.207 19.4128 107.622 19.4128ZM113.694 29.3456C113.694 33.3364 111.212 36.0413 107.489 36.0413C104.12 36.0413 101.372 33.0703 101.372 29.4342C101.372 25.4434 103.899 22.6498 107.578 22.6498C110.991 22.6498 113.694 25.5764 113.694 29.3456Z" fill="#36517F"/>
<path id="Vector_6" d="M141.264 19.4128C138.472 19.4128 136.034 21.0092 134.704 22.0734C133.64 20.2997 132 19.4128 129.828 19.4128C127.169 19.4128 125.13 20.7431 124.111 21.5856V19.8563H120.387V38.6131H124.111V25C124.82 24.2462 126.637 22.8716 128.543 22.8716C130.936 22.8716 132 24.0245 132 26.5963V38.7018H135.723V24.9557C136.699 23.9801 138.427 22.8716 140.289 22.8716C142.594 22.8716 143.657 24.0245 143.657 26.685V38.7018H147.381V26.2416C147.292 21.763 145.209 19.4128 141.264 19.4128Z" fill="#36517F"/>
<path id="Vector_7" d="M158.728 19.4128C155.802 19.4128 153.63 20.211 152.256 20.8318L152.035 20.9205L153.276 23.8028L153.497 23.7141C153.586 23.6697 155.758 22.6498 158.506 22.6498C161.21 22.6498 162.85 23.8914 162.85 25.9312V27.7492C161.52 26.7737 159.703 26.1972 157.753 26.1972C154.606 26.1972 149.951 27.8379 149.951 32.3609C149.951 35.5092 152.079 39.2339 158.151 39.2339C162.761 39.2339 165.288 37.6376 166.396 36.7064L166.484 36.6621V26.7294C166.484 21.5856 164.135 19.4128 158.728 19.4128ZM162.85 31.1636V34.7997C161.697 35.5535 160.146 35.9526 158.373 35.9526C155.226 35.9526 153.808 34.2232 153.808 32.5826C153.808 30.9862 155.182 29.4342 158.196 29.4342C160.545 29.4342 162.185 30.5872 162.85 31.1636Z" fill="#36517F"/>
<path id="Vector_8" d="M38.8311 15.156C39.1857 15.0673 39.5846 14.9786 39.9392 14.9786L40.5597 14.9343C40.604 14.9343 40.6484 14.9343 40.6484 14.9343C42.3327 14.9343 43.8397 15.4664 45.0808 16.3976C46.9867 15.9541 48.538 15.9098 49.8234 16.1759C48.0061 13.471 44.9921 11.6086 41.5348 11.3425C39.3186 5.09022 33.3792 0.877686 26.7306 0.877686C18.7966 0.877686 11.9707 7.04129 11.0842 14.8899C5.05614 15.7324 0.579407 20.9205 0.579407 27.0398C0.579407 33.7798 6.07559 39.2783 12.8128 39.2783H14.9404V35.6422H12.8128C8.07017 35.6422 4.21398 31.7844 4.21398 27.0398C4.21398 23.0046 7.00639 19.5459 10.8626 18.659C11.5274 18.4817 12.2366 18.393 12.9901 18.393C13.6107 18.393 14.2312 18.4817 14.8074 18.5703C14.7188 17.9052 14.6301 17.2401 14.6301 16.5749C14.6301 9.92356 20.0377 4.46943 26.7306 4.46943C27.7057 4.46943 28.6365 4.60246 29.5673 4.82417C34.4873 5.93273 38.2105 10.0566 38.8311 15.156Z" fill="#158FCF"/>
</g>
</svg>
