<svg width="112" height="87" viewBox="0 0 112 87" fill="none" xmlns="http://www.w3.org/2000/svg">
<path id="Vector" d="M86.3745 32.9358C87.1744 32.737 88.0741 32.5382 88.8739 32.5382L90.2736 32.4389C90.3736 32.4389 90.4735 32.4389 90.4735 32.4389C94.2726 32.4389 97.6718 33.6315 100.471 35.7187C104.77 34.7248 108.269 34.6254 111.168 35.2217C107.069 29.159 100.271 24.9847 92.473 24.3884C87.4743 10.3746 74.0776 0.932739 59.0813 0.932739C41.1857 0.932739 25.7895 14.7477 23.79 32.3395C10.1933 34.2278 0.0957947 45.8563 0.0957947 59.5719C0.0957947 74.6789 12.4927 87.0031 27.689 87.0031H32.4878V78.8532H27.689C16.9916 78.8532 8.29377 70.2064 8.29377 59.5719C8.29377 50.5275 14.5922 42.7752 23.2901 40.7875C24.7897 40.3899 26.3893 40.1912 28.0889 40.1912C29.4886 40.1912 30.8882 40.3899 32.1879 40.5887C31.9879 39.0979 31.788 37.6071 31.788 36.1162C31.788 21.208 43.985 8.9832 59.0813 8.9832C61.2807 8.9832 63.3802 9.28136 65.4797 9.77831C76.577 12.263 84.9749 21.5061 86.3745 32.9358Z" fill="#158FCF"/>
</svg>
