<svg width="62" height="44" viewBox="0 0 62 44" fill="none" xmlns="http://www.w3.org/2000/svg">
<path id="Vector" d="M47.4176 0.477051C41.1192 0.477051 35.6205 4.05503 32.6213 6.44035C30.2219 2.46482 26.5228 0.477051 21.624 0.477051C15.6255 0.477051 11.0266 3.4587 8.72715 5.34708V1.47093H0.329224V43.5122H8.72715V13C10.3268 11.3104 14.4257 8.22934 18.7247 8.22934C24.1234 8.22934 26.5228 10.8134 26.5228 16.578V43.711H34.9207V12.9006C37.1202 10.7141 41.0192 8.22934 45.2182 8.22934C50.4169 8.22934 52.8163 10.8134 52.8163 16.7767V43.711H61.2142V15.7829C61.0143 5.74463 56.3154 0.477051 47.4176 0.477051Z" fill="white"/>
</svg>
