<svg width="37" height="53" viewBox="0 0 37 53" fill="none" xmlns="http://www.w3.org/2000/svg">
<path id="Vector" d="M22.8803 22.1927L22.7804 22.292L22.8803 22.1927C18.1815 19.9067 14.1825 17.919 14.1825 14.341C14.1825 11.6575 16.2819 8.974 20.9808 8.974C25.5797 8.974 29.8786 12.4526 30.9783 13.6453L31.6782 14.341L35.8771 6.98624L35.4772 6.58869C32.7779 3.9052 27.1793 0.824158 19.981 0.824158C10.7833 0.824158 3.78503 6.88685 3.78503 14.8379C3.78503 22.3914 10.7833 26.0688 16.8818 29.2492C21.7806 31.8333 25.9796 34.0199 25.9796 37.5979C25.9796 44.2569 19.7811 44.7538 17.8816 44.7538H1.98547H0.48584V52.9037H18.2815C29.0788 52.9037 36.377 46.6422 36.377 37.3991C36.277 28.7523 29.1788 25.2737 22.8803 22.1927Z" fill="white"/>
</svg>
